<?xml version="1.0" encoding="UTF-8" standalone="no"?>
<!-- Created with Inkscape (http://www.inkscape.org/) -->

<svg
   xmlns:dc="http://purl.org/dc/elements/1.1/"
   xmlns:cc="http://creativecommons.org/ns#"
   xmlns:rdf="http://www.w3.org/1999/02/22-rdf-syntax-ns#"
   xmlns:svg="http://www.w3.org/2000/svg"
   xmlns="http://www.w3.org/2000/svg"
   xmlns:sodipodi="http://sodipodi.sourceforge.net/DTD/sodipodi-0.dtd"
   xmlns:inkscape="http://www.inkscape.org/namespaces/inkscape"
   version="1.1"
   id="svg2"
   width="1440"
   height="2560"
   viewBox="0 0 1440 2560"
   sodipodi:docname="IdiomIcon.svg"
   inkscape:version="0.92.2 (5c3e80d, 2017-08-06)"
   inkscape:export-filename="D:\desenv\games\SpinTo7\Layout\IdiomIcon.png"
   inkscape:export-xdpi="96"
   inkscape:export-ydpi="96">
  <metadata
     id="metadata8">
    <rdf:RDF>
      <cc:Work
         rdf:about="">
        <dc:format>image/svg+xml</dc:format>
        <dc:type
           rdf:resource="http://purl.org/dc/dcmitype/StillImage" />
        <dc:title></dc:title>
      </cc:Work>
    </rdf:RDF>
  </metadata>
  <defs
     id="defs6">
    <marker
       inkscape:stockid="DotL"
       orient="auto"
       refY="0.0"
       refX="0.0"
       id="DotL"
       style="overflow:visible"
       inkscape:isstock="true">
      <path
         id="path880"
         d="M -2.5,-1.0 C -2.5,1.7600000 -4.7400000,4.0 -7.5,4.0 C -10.260000,4.0 -12.5,1.7600000 -12.5,-1.0 C -12.5,-3.7600000 -10.260000,-6.0 -7.5,-6.0 C -4.7400000,-6.0 -2.5,-3.7600000 -2.5,-1.0 z "
         style="fill-rule:evenodd;stroke:#000000;stroke-width:1pt;stroke-opacity:1;fill:#000000;fill-opacity:1"
         transform="scale(0.8) translate(7.4, 1)" />
    </marker>
  </defs>
  <sodipodi:namedview
     pagecolor="#ffffff"
     bordercolor="#666666"
     borderopacity="1"
     objecttolerance="10"
     gridtolerance="10"
     guidetolerance="10"
     inkscape:pageopacity="0"
     inkscape:pageshadow="2"
     inkscape:window-width="1920"
     inkscape:window-height="1001"
     id="namedview4"
     showgrid="false"
     inkscape:zoom="1"
     inkscape:cx="667.26205"
     inkscape:cy="1278.6706"
     inkscape:window-x="-9"
     inkscape:window-y="-9"
     inkscape:window-maximized="1"
     inkscape:current-layer="svg2" />
  <rect
     style="opacity:1;fill:#25977c;fill-opacity:1;stroke:#25977c;stroke-width:5.64499998;stroke-miterlimit:3.29999995;stroke-dasharray:none;stroke-opacity:1"
     id="rect4222"
     width="292.93939"
     height="292.93939"
     x="546.03027"
     y="1036.0303"
     ry="39"
     inkscape:export-xdpi="96"
     inkscape:export-ydpi="96" />
  <g
     id="g5"
     transform="matrix(0.43052838,0,0,0.43052838,582.71523,1072.7152)"
     style="fill:#ffffff;stroke:#ffffff">
    <g
       id="language"
       style="fill:#ffffff;stroke:#ffffff">
      <path
         inkscape:connector-curvature="0"
         d="M 255,0 C 114.75,0 0,114.75 0,255 0,395.25 114.75,510 255,510 395.25,510 510,395.25 510,255 510,114.75 395.25,0 255,0 Z M 430.95,153 H 357 C 349.35,119.85 336.6,91.8 321.3,61.2 367.2,79.05 408,109.65 430.95,153 Z M 255,51 c 20.4,30.6 38.25,63.75 48.45,102 h -96.9 C 216.75,117.3 234.6,81.6 255,51 Z M 58.65,306 C 53.55,290.7 51,272.85 51,255 c 0,-17.85 2.55,-35.7 7.65,-51 h 86.7 c -2.55,17.85 -2.55,33.15 -2.55,51 0,17.85 2.55,33.15 2.55,51 z m 20.4,51 H 153 c 7.65,33.15 20.4,61.2 35.7,91.8 C 142.8,430.95 102,400.35 79.05,357 Z M 153,153 H 79.05 C 104.55,109.65 142.8,79.05 188.7,61.2 173.4,91.8 160.65,119.85 153,153 Z M 255,459 C 234.6,428.4 216.75,395.25 206.55,357 h 96.9 C 293.25,392.7 275.4,428.4 255,459 Z m 58.65,-153 h -117.3 c -2.55,-17.85 -5.1,-33.15 -5.1,-51 0,-17.85 2.55,-33.15 5.1,-51 H 316.2 c 2.55,17.85 5.1,33.15 5.1,51 0,17.85 -5.1,33.15 -7.65,51 z m 7.65,142.8 C 336.6,420.75 349.35,390.151 357,357 h 73.95 C 408,400.35 367.2,430.95 321.3,448.8 Z M 367.2,306 c 2.55,-17.85 2.55,-33.15 2.55,-51 0,-17.85 -2.55,-33.15 -2.55,-51 h 86.7 c 5.1,15.3 7.649,33.15 7.649,51 0,17.85 -2.55,35.7 -7.649,51 z"
         id="path2"
         style="fill:#ffffff;stroke:#ffffff" />
    </g>
  </g>
</svg>
